<svg xmlns="http://www.w3.org/2000/svg" xmlns:xlink="http://www.w3.org/1999/xlink" viewBox="0 0 132.89 223.28"><defs><linearGradient id="Áåçûìÿííûé_ãðàäèåíò_12" x1="73.37" y1="155.84" x2="73.37" y2="221.56" gradientUnits="userSpaceOnUse"><stop offset="0" stop-color="#1dedd5"/><stop offset="0.18" stop-color="#1ebcb8"/><stop offset="0.36" stop-color="#20929e"/><stop offset="0.54" stop-color="#21708a"/><stop offset="0.71" stop-color="#21587c"/><stop offset="0.87" stop-color="#224a73"/><stop offset="1" stop-color="#224570"/></linearGradient><linearGradient id="Áåçûìÿííûé_ãðàäèåíò_12-2" x1="57.11" y1="1.96" x2="94.9" y2="126.55" xlink:href="#Áåçûìÿííûé_ãðàäèåíò_12"/><linearGradient id="Áåçûìÿííûé_ãðàäèåíò_12-3" x1="90.17" y1="-8.07" x2="127.96" y2="116.53" xlink:href="#Áåçûìÿííûé_ãðàäèåíò_12"/><linearGradient id="Áåçûìÿííûé_ãðàäèåíò_12-4" x1="-11.21" y1="22.68" x2="26.57" y2="147.27" xlink:href="#Áåçûìÿííûé_ãðàäèåíò_12"/><linearGradient id="Áåçûìÿííûé_ãðàäèåíò_12-5" x1="139.43" y1="48.49" x2="104.73" y2="63.59" xlink:href="#Áåçûìÿííûé_ãðàäèåíò_12"/><linearGradient id="Áåçûìÿííûé_ãðàäèåíò_35" x1="110.22" y1="88.75" x2="114.47" y2="40.25" gradientUnits="userSpaceOnUse"><stop offset="0" stop-color="#1dedd5"/><stop offset="0.45" stop-color="#1f9ba4"/><stop offset="0.82" stop-color="#215d7e"/><stop offset="1" stop-color="#224570"/></linearGradient><linearGradient id="Áåçûìÿííûé_ãðàäèåíò_12-6" x1="84.26" y1="163.45" x2="90.57" y2="110.5" xlink:href="#Áåçûìÿííûé_ãðàäèåíò_12"/><linearGradient id="Áåçûìÿííûé_ãðàäèåíò_12-7" x1="82.06" y1="176.73" x2="93.05" y2="176.73" xlink:href="#Áåçûìÿííûé_ãðàäèåíò_12"/><linearGradient id="Áåçûìÿííûé_ãðàäèåíò_12-8" x1="54.24" y1="195.07" x2="90.84" y2="195.07" xlink:href="#Áåçûìÿííûé_ãðàäèåíò_12"/><linearGradient id="Áåçûìÿííûé_ãðàäèåíò_13" x1="104.61" y1="31.37" x2="87.12" y2="61.39" xlink:href="#Áåçûìÿííûé_ãðàäèåíò_12"/><linearGradient id="Áåçûìÿííûé_ãðàäèåíò_12-9" x1="65.67" y1="178.95" x2="70.08" y2="111.18" xlink:href="#Áåçûìÿííûé_ãðàäèåíò_12"/><linearGradient id="Áåçûìÿííûé_ãðàäèåíò_12-10" x1="27.46" y1="46.23" x2="61.49" y2="75.53" xlink:href="#Áåçûìÿííûé_ãðàäèåíò_12"/><linearGradient id="Áåçûìÿííûé_ãðàäèåíò_5" x1="25.67" y1="43.39" x2="63.28" y2="74.08" gradientUnits="userSpaceOnUse"><stop offset="0" stop-color="#139b82"/><stop offset="0.16" stop-color="#0e705e"/><stop offset="0.34" stop-color="#09483c"/><stop offset="0.52" stop-color="#052922"/><stop offset="0.69" stop-color="#02120f"/><stop offset="0.85" stop-color="#010504"/><stop offset="1"/></linearGradient><linearGradient id="Áåçûìÿííûé_ãðàäèåíò_5-2" x1="58.42" y1="186.36" x2="77.1" y2="92.74" xlink:href="#Áåçûìÿííûé_ãðàäèåíò_5"/><linearGradient id="Áåçûìÿííûé_ãðàäèåíò_5-3" x1="99.81" y1="25.94" x2="82.91" y2="69.68" xlink:href="#Áåçûìÿííûé_ãðàäèåíò_5"/><linearGradient id="Áåçûìÿííûé_ãðàäèåíò_5-4" x1="115.34" y1="35.29" x2="117.7" y2="81.03" xlink:href="#Áåçûìÿííûé_ãðàäèåíò_5"/><linearGradient id="Áåçûìÿííûé_ãðàäèåíò_50" x1="14.61" y1="64.94" x2="90.17" y2="64.94" gradientUnits="userSpaceOnUse"><stop offset="0" stop-color="#ff8644"/><stop offset="0.1" stop-color="#ff964f"/><stop offset="0.3" stop-color="#ffc16d"/><stop offset="0.5" stop-color="#fff18e"/><stop offset="0.58" stop-color="#ffd67c"/><stop offset="0.7" stop-color="#ffb464"/><stop offset="0.81" stop-color="#ff9a52"/><stop offset="0.92" stop-color="#ff8b48"/><stop offset="1" stop-color="#ff8644"/></linearGradient><linearGradient id="Áåçûìÿííûé_ãðàäèåíò_50-2" x1="98.51" y1="69.32" x2="106.98" y2="69.32" xlink:href="#Áåçûìÿííûé_ãðàäèåíò_50"/><linearGradient id="Áåçûìÿííûé_ãðàäèåíò_50-3" x1="101.7" y1="56.82" x2="132.39" y2="56.82" xlink:href="#Áåçûìÿííûé_ãðàäèåíò_50"/><linearGradient id="Áåçûìÿííûé_ãðàäèåíò_50-4" x1="55.86" y1="140.74" x2="82.47" y2="140.74" xlink:href="#Áåçûìÿííûé_ãðàäèåíò_50"/></defs><g style="isolation:isolate"><g id="Layer_2" data-name="Layer 2"><g id="layer_1-2" data-name="layer 1"><path d="M44.68,205.81c-1.52,20,58.81,20.25,57.39-.21h0C106,228.84,41.48,229.44,44.68,205.81Z" fill="#adfedc"/><path d="M102.07,205.6c1.42,20.46-58.91,20.21-57.39.21l0-.21a10.47,10.47,0,0,1,.45-2.24,261.19,261.19,0,0,0,7.55-33.42c1.87-11.08,39.17-10.62,41.43,0s4.29,21.82,7.55,33.42A11.54,11.54,0,0,1,102.07,205.6Z" fill="url(#Áåçûìÿííûé_ãðàäèåíò_12)"/><path d="M90.84,197.31c.41,3.09.61,6.54.26,6.71-3.16,1.89-7.63,2.39-12.52,2.45a8.56,8.56,0,0,1-1.53-2,10.06,10.06,0,0,0-2.56,2c-7.57,0-14.13-1-19.13-3.46a21.52,21.52,0,0,1-1-3.17l2.37,1.95c3.83,2.11,10.37,2.67,17.51,2.89L78.48,202l1.9,1.91a24,24,0,0,0,6-.94l.7-3.29A10.19,10.19,0,0,0,90.84,197.31Z" fill="#adfedc"/><path d="M68.76,191a12.92,12.92,0,0,0-.45,6.58,22.62,22.62,0,0,1-8.82.24,5.72,5.72,0,0,1,3.06-4.55A31.22,31.22,0,0,0,68.76,191Z" fill="#adfedc"/><path d="M87.56,29.16,86,29,85,28.93a10.36,10.36,0,0,1-.47,2.44,14.75,14.75,0,0,1-4.77-2c-.28,1.28-.59,2.59-.9,3.91a11.61,11.61,0,0,1-3.11-2.77l-.71,1.22a10.31,10.31,0,0,1-2.46-.45,19.23,19.23,0,0,1-2.85-1.08,21,21,0,0,1-5.59-6.59c.64-3,.78-5.83-.71-7.83a.71.71,0,0,0-.51-.29c-1,0-1.73.81-2.44,2l-.09,0a6.17,6.17,0,0,1-2.59-2.72L59.65,14a14.42,14.42,0,0,1-3.34-6.59h3a11.66,11.66,0,0,1-3.31-6,26.61,26.61,0,0,0,6.73,2.84L61.11,1.42A24.38,24.38,0,0,1,72,2.13L72.88.44a33.19,33.19,0,0,1,8.27,5.05l.78-1.11c2.92,3.45,4.89,7,5.12,10.91a19.64,19.64,0,0,1-1.5,9.19A16.44,16.44,0,0,0,87.56,29.16Z" fill="#224570"/><path d="M69.77,30.23l-4,2.53a5.09,5.09,0,0,1-4.53-3.63C60.07,25,59.52,21,60.43,17.54l.09,0c.71-1.18,1.49-2,2.44-2a.71.71,0,0,1,.51.29c1.49,2,1.35,4.8.71,7.83A21,21,0,0,0,69.77,30.23Z" fill="url(#Áåçûìÿííûé_ãðàäèåíò_12-2)"/><path d="M125.54,85.55a13.63,13.63,0,0,1-2.08,3.22l-2.33.6a18.82,18.82,0,0,1-6.61-3.08,4.22,4.22,0,0,1-2.32,0,2.47,2.47,0,0,1-.83-1.89A11.8,11.8,0,0,1,113,81.73a4.68,4.68,0,0,1-.39-1.62,8.07,8.07,0,0,1,2.2-2.24,3.36,3.36,0,0,1,1.58.19,17.25,17.25,0,0,0,1.75,3.6h0A8.27,8.27,0,0,0,125.54,85.55Z" fill="url(#Áåçûìÿííûé_ãðàäèåíò_12-3)"/><path d="M15.82,80.66h0a9.49,9.49,0,0,0,.33,9.47,8.09,8.09,0,0,1-5,2.41,15.08,15.08,0,0,1-4.55-1.6L4.3,93l.79,1.57a2,2,0,0,1-.23,1.77,8.11,8.11,0,0,1-3.39-.68A27.72,27.72,0,0,1,.11,87.78a18.73,18.73,0,0,1,2.62-4.49l-.94-1.16A2.35,2.35,0,0,1,2.44,80a16.9,16.9,0,0,1,6.11.41A8.9,8.9,0,0,1,11,79.06,10,10,0,0,1,15.82,80.66Z" fill="url(#Áåçûìÿííûé_ãðàäèåíò_12-4)"/><path d="M132.47,64c.84,7-1.59,14.25-3.05,21.21a20.5,20.5,0,0,1-3.88.31,8.27,8.27,0,0,1-7.38-3.88h0A31.26,31.26,0,0,0,121,70.49c-3.64-2.93-6.79-4.52-12-7.56l-1.65-3.13-3.6-2.8c-.4-1.28-.81-2.58-1.25-3.88C100.7,47.88,98.5,43,95,39.17l-.83-2-1.07-.88L97.83,38h3.7l1.58,3.71,4.41,2.36v2C117.07,51.93,125.69,57.85,132.47,64Z" fill="url(#Áåçûìÿííûé_ãðàäèåíò_12-5)"/><path d="M121,70.49a31.26,31.26,0,0,1-2.86,11.17,17.25,17.25,0,0,1-1.75-3.6,13.09,13.09,0,0,0,.48-4.73l-1.5-.32-.63-2.83A59.19,59.19,0,0,0,106,64.85Q105,61,103.76,57l3.6,2.8L109,62.93C114.23,66,117.38,67.56,121,70.49Z" fill="url(#Áåçûìÿííûé_ãðàäèåíò_35)"/><path d="M103.42,93.11l5-6.07a34,34,0,0,1-1,5.85v2.84l-1.72.62-1.93.7c-11,1.46-21.06.66-29.71-3.56-.79-.39-1.57-.8-2.33-1.24V87.83L68.15,80l1.62-2.2A97.67,97.67,0,0,0,62,60.1l3.85-3.32L64.76,60.1a110,110,0,0,1,9.61,17.17l-2.59,3.24L76.26,87v3A68.7,68.7,0,0,0,89,93a69.92,69.92,0,0,0,11.17.42C101.23,93.33,102.32,93.24,103.42,93.11Z" fill="#172352"/><path d="M105.75,96.35c.19,4.27-1,9-3.12,14.1a199.81,199.81,0,0,0-20.89,22.22l.58,2.13-.58,2.12A220,220,0,0,0,90,167.54l-1.07,2.6c-1.49,1-4,1.3-6.87,1.43-4.12-12-7.25-22.75-8.47-34.18L76,134.72l-1.42-2.47q8.63-11.44,18.66-23.69a36.83,36.83,0,0,0,8-4.5,34.51,34.51,0,0,0,2.6-7Z" fill="url(#Áåçûìÿííûé_ãðàäèåíò_12-6)"/><path d="M83.62,180.62A9.42,9.42,0,0,1,80.83,182a396.84,396.84,0,0,1-12.07-44.47l1.88-2.79-.71-2.64C76,123,81.2,114.32,84.57,106.63l-1.78-4.46,2.37-1.29-11-7.39c8.65,4.22,18.72,5,29.71,3.56a34.51,34.51,0,0,1-2.6,7,36.83,36.83,0,0,1-8,4.5q-10,12.25-18.66,23.69L76,134.72l-2.36,2.67c1.22,11.43,4.35,22.2,8.47,34.18q1.29,3.75,2.7,7.68A3.66,3.66,0,0,1,83.62,180.62Z" fill="#172352"/><path d="M90.71,171.91a18.89,18.89,0,0,1,2.34,8.7,14.31,14.31,0,0,1-8.61,2.69h0c-.29-.93-.56-1.83-.81-2.68a3.66,3.66,0,0,0,1.14-1.37q-1.41-3.93-2.7-7.68c2.86-.13,5.38-.47,6.87-1.43Z" fill="url(#Áåçûìÿííûé_ãðàäèåíò_12-7)"/><path d="M89.84,192.63a19.88,19.88,0,0,1,1,4.68,10.19,10.19,0,0,1-3.74,2.41L86.4,203a24,24,0,0,1-6,.94L78.48,202l-4.24,2.64c-7.14-.22-13.68-.78-17.51-2.89l-2.37-1.95A4.86,4.86,0,0,1,54.3,198c1-2.44,4.33-4.4,6.79-4.53.51-.07,1-.15,1.46-.25a5.72,5.72,0,0,0-3.06,4.55,22.62,22.62,0,0,0,8.82-.24,12.92,12.92,0,0,1,.45-6.58c.44-.21.92-.41,1.4-.62a7,7,0,0,0-.53-2.62C68.92,186,71,185,72.09,185.66l1.18.91,2.33,2.6,1.29,3.08a12.13,12.13,0,0,0,8.92-1.6l.17-2.74C87.67,188.63,89.69,192.36,89.84,192.63Z" fill="url(#Áåçûìÿííûé_ãðàäèåíò_12-8)"/><path d="M106,64.85Q105,61,103.76,57c-.4-1.28-.81-2.58-1.25-3.88C100.7,47.88,98.5,43,95,39.17l-.83-2-1.07-.88h0l-3.64-3-.73-4-1.12-.15L86,29,85,28.93a10.36,10.36,0,0,1-.47,2.44,14.75,14.75,0,0,1-4.77-2c-.28,1.28-.59,2.59-.9,3.91a11.61,11.61,0,0,1-3.11-2.77l-.71,1.22a10.31,10.31,0,0,1-2.46-.45l-.84,3.25L64.5,37.94c3.08,5.82,3.2,12.15,1.37,18.84L64.76,60.1a110,110,0,0,1,9.61,17.17l-2.59,3.24L76.26,87v3A68.7,68.7,0,0,0,89,93a69.92,69.92,0,0,0,11.17.42c1.1-.06,2.19-.15,3.29-.28l5-6.07C109,80.41,108,72.9,106,64.85Z" fill="url(#Áåçûìÿííûé_ãðàäèåíò_13)"/><path d="M86,187.91l-.17,2.74a12.13,12.13,0,0,1-8.92,1.6l-1.29-3.08-2.33-2.6-.63-4.28a15.31,15.31,0,0,0,8.19-.31,9.42,9.42,0,0,0,2.79-1.36c.25.85.52,1.75.81,2.68C84.89,184.77,85.41,186.34,86,187.91Z" fill="#172352"/><path d="M85.16,100.88l-2.37,1.29,1.78,4.46C81.2,114.32,76,123,69.93,132.08l.71,2.64-1.88,2.79A396.84,396.84,0,0,0,80.83,182a15.31,15.31,0,0,1-8.19.31,3.78,3.78,0,0,1-.86-.37A196.78,196.78,0,0,1,53,137.16,235.54,235.54,0,0,1,71.78,92.25c.76.44,1.54.85,2.33,1.24Z" fill="url(#Áåçûìÿííûé_ãðàäèåíò_12-9)"/><path d="M72.62,31.31l-.84,3.25L64.5,37.94c3.08,5.82,3.2,12.15,1.37,18.84L62,60.1A168.23,168.23,0,0,1,44.53,77.84l-2.91-.49v2.37a203.48,203.48,0,0,1-24.95,11,6,6,0,0,1-.51-.62,9.49,9.49,0,0,1-.33-9.47l.25-.47a58.57,58.57,0,0,0,17-10.41l1.4-3.3H36c4.58-8.15,9.51-16.16,14.89-24l1-3.78h.83l.71-2.6a48.3,48.3,0,0,1,10.62-2.29l1.67-1.05,4-2.53A19.23,19.23,0,0,0,72.62,31.31Z" fill="url(#Áåçûìÿííûé_ãðàäèåíò_12-10)"/><path d="M62,60.1C56.2,68.54,50.62,76,45.63,80.89a163.21,163.21,0,0,1-26,11.36,4.53,4.53,0,0,1-3-1.5,203.48,203.48,0,0,0,24.95-11V77.35l2.91.49A168.23,168.23,0,0,0,62,60.1Z" fill="#172352"/><path d="M69.77,30.23l-4,2.53-1.67,1.05A48.3,48.3,0,0,0,53.51,36.1l-.71,2.6H52l-1,3.78c-5.38,7.84-10.31,15.85-14.89,24H34.48l-1.4,3.3A59.74,59.74,0,0,1,16.91,79.86L16.67,81l-1.1,3.52L37.69,73.25l-.48-3.31,3.7-.55L60.44,44.25l-.79-5.91,5.22-2.06,5.49-4.48V30.48Z" fill="url(#Áåçûìÿííûé_ãðàäèåíò_5)" style="mix-blend-mode:screen"/><path d="M73.59,98l-3-3.54A238.74,238.74,0,0,0,53,137.16a196.81,196.81,0,0,0,18,43.46h3.72l-15.28-44.4Z" fill="url(#Áåçûìÿííûé_ãðàäèåíò_5-2)" style="mix-blend-mode:screen"/><path d="M73.19,32.76l-.57,4a108.93,108.93,0,0,1,15.69,28c4.55,2.27,11.15,4.17,18.18,6-2.39-12.43-5.67-23.79-12.28-31.2l-1.15-2.6-4.2-3.16L88,30.23l-1.44-.48-1.31,2.13-5-1.65-.87,3.46L76,31.57l-.32,1.19Z" fill="url(#Áåçûìÿííûé_ãðàäèåíò_5-3)" style="mix-blend-mode:screen"/><path d="M107.52,46.14v-2l-4.41-2.36L101.53,38H99.78l2.38,9.3a165.09,165.09,0,0,1,27.63,19.38,103,103,0,0,1-3.34,18.84,22.4,22.4,0,0,0,3-.31c1.46-7,3.89-14.18,3.05-21.21C125.69,57.85,117.07,51.93,107.52,46.14Z" fill="url(#Áåçûìÿííûé_ãðàäèåíò_5-4)" style="mix-blend-mode:screen"/><path d="M82.8,7.53H81L74.77,5.25V8.32L67.52,6.78l1,6-2.13,1.74.55,5.12-1.18,3,4.65,6.35,3.89.82,1.22-.82,2.68,1.3,1.65-2.6,3,1.81,1-2.6,1.42.71-.48-2.92C86,18.38,85.7,12.58,82.8,7.53Z" fill="#172352"/><path d="M123.46,88.77a13.77,13.77,0,0,0,2-3.23v0h0c.65,0,1.3,0,1.94-.1s1.29-.17,1.93-.25l-.06,0c.71-3.52,1.63-7,2.27-10.52a34.58,34.58,0,0,0,.58-10.63l.09.17c-1.91-1.71-3.88-3.33-5.91-4.89s-4.07-3.09-6.16-4.56c-4.19-2.94-8.5-5.69-12.88-8.35l-.17-.1V44.1l.18.3L102.94,42l-.11,0,0-.12-1.58-3.7.32.21H97.77l-.06,0-4.77-1.75.12,0h-.13l-.1-.08-3.64-3-.1-.08,0-.13-.72-4,.3.28-1.13-.14-.16,0-.09-.15a16.65,16.65,0,0,1-2.05-4.78l0-.11,0-.11a18.94,18.94,0,0,0,1.38-5.12,20,20,0,0,0-.07-5.3A20.41,20.41,0,0,0,81.67,4.6l.54,0-.78,1.11-.22.3-.28-.23a32.49,32.49,0,0,0-8.19-5L73.18.6l-.9,1.7-.14.25-.27-.08a23.94,23.94,0,0,0-10.7-.71l.24-.51L63,4.09l.43.76-.83-.25a27.74,27.74,0,0,1-6.81-2.89l.52-.36a11.33,11.33,0,0,0,3.21,5.81l.61.6H56.31l.34-.4a14.16,14.16,0,0,0,3.27,6.42l.27.35-.4.18-1.8.83.16-.48a5.8,5.8,0,0,0,2.45,2.57l.24.13-.07.27a19.19,19.19,0,0,0,.15,8.72c.16.72.34,1.44.53,2.15a5.65,5.65,0,0,0,.85,1.94,4.86,4.86,0,0,0,3.54,2l1,.11-.83.53L64.32,34.1l-.07,0h-.08a47.82,47.82,0,0,0-10.56,2.27l.23-.24-.7,2.6-.07.26H52l.34-.26-1.06,3.78v.06l0,0c-5.31,7.76-10.26,15.78-14.86,24l-.1.17H34.48l.32-.21-1.4,3.31,0,.08-.06,0-2,1.58-2,1.53L27.3,74.62,25.2,76c-1.44.87-2.87,1.75-4.38,2.49a43.15,43.15,0,0,1-4.63,2l.17-.14-.24.44L16,81h-.28l-.07,0A10,10,0,0,0,11,79.33h.08a8.41,8.41,0,0,0-2.36,1.3l-.09.07-.11,0a16.65,16.65,0,0,0-6-.46l.11,0a2.2,2.2,0,0,0-.61,2l0-.08.93,1.16.08.1-.08.1A18.59,18.59,0,0,0,.2,87.83v0A27.82,27.82,0,0,0,1.5,95.66l0,0a8.13,8.13,0,0,0,3.38.71,8.16,8.16,0,0,1-3.41-.65h0A27.9,27.9,0,0,1,0,87.78v0a18.87,18.87,0,0,1,2.6-4.55v.2l-.95-1.15,0,0v0a3.11,3.11,0,0,1,.06-1.21,2.14,2.14,0,0,1,.63-1.06l0,0h.06a17,17,0,0,1,6.2.35l-.21,0a9.17,9.17,0,0,1,2.49-1.43H11a7.09,7.09,0,0,1,2.63.48A19.84,19.84,0,0,1,16,80.38l-.16,0h0l-.29.19.26-.5,0-.1.12,0c1.54-.62,3.06-1.28,4.53-2s2.92-1.58,4.33-2.45L26.91,74l2-1.44,2-1.51,1.94-1.57-.1.13,1.4-3.31.09-.21H36l-.3.18q6.93-12.33,14.9-24l-.05.1,1.06-3.77.07-.26H52.8l-.33.26.7-2.6,0-.18.18-.06a49,49,0,0,1,10.7-2.3l-.15.05,1.66-1.06.15.64a5.56,5.56,0,0,1-4-2.27,6.09,6.09,0,0,1-.94-2.14c-.2-.73-.39-1.46-.54-2.2a19.58,19.58,0,0,1-.15-9l.17.4A6.58,6.58,0,0,1,57.54,15l-.17-.32.33-.16,1.8-.82-.12.53a22.4,22.4,0,0,1-2.13-3.13A10.44,10.44,0,0,1,56,7.46l-.06-.39H59.3l-.25.59a12.05,12.05,0,0,1-3.39-6.17l-.17-.8.69.44a26.71,26.71,0,0,0,6.64,2.8l-.4.51L60.81,1.59l-.25-.43.49-.08a24.75,24.75,0,0,1,11,.72L71.66,2,72.57.28,72.72,0,73,.12a33.05,33.05,0,0,1,8.35,5.1l-.5.07.79-1.12.26-.36.29.34a28.59,28.59,0,0,1,3.14,4.48,16.69,16.69,0,0,1,1.88,5.18,19.88,19.88,0,0,1,.07,5.5,19.17,19.17,0,0,1-1.42,5.3l0-.21a16,16,0,0,0,2,4.58l-.25-.16,1.13.15L89,29l0,.25.72,4L89.62,33l3.65,3-.22-.07h.07l.06,0L98,37.71l-.12,0h3.93l.09.21,1.57,3.7-.15-.17,4.41,2.36.18.1v2.25l-.16-.29c4.38,2.66,8.71,5.42,12.92,8.37,2.1,1.47,4.17,3,6.19,4.59s4,3.27,5.85,5l.07.07,0,.1A35.09,35.09,0,0,1,132,74.77c-.71,3.53-1.7,7-2.47,10.48v0h0c-.65.07-1.29.18-1.94.22s-1.3.07-1.95.06l0,0A14,14,0,0,1,123.46,88.77Z" fill="#adfedc"/><path d="M62.32,59.93A99.38,99.38,0,0,1,70.1,77.64l.05.17-.1.14-1.62,2.21,0-.36,3.63,7.88,0,.07v4.58l0,.08c-1,1.79-1.88,3.6-2.79,5.41l-2.73,5.44c-1.79,3.63-3.4,7.36-5,11.1-.79,1.87-1.51,3.77-2.26,5.65l-2.12,5.7-2,5.76-1.85,5.79v-.19l1.73,5.82L57,148.65l2.08,5.7c.76,1.88,1.49,3.77,2.26,5.63l2.43,5.57c.84,1.84,1.71,3.66,2.61,5.48,1.78,3.63,3.71,7.19,5.69,10.72l-.13-.13.8.34.21.09,0,.19.63,4.28.12.85-.68-.52-1.18-.91,0,0a1.5,1.5,0,0,0-1.59.17A1.19,1.19,0,0,0,70,187.6v.05c.12.42.26.82.39,1.28a4.14,4.14,0,0,1,.15,1.44h0v.21l-.2.09c-1.45.7-2.9,1.39-4.4,2a21.23,21.23,0,0,1-2.33.78,24.68,24.68,0,0,1-2.42.49h0a8.62,8.62,0,0,0-3.77,1.32,6.87,6.87,0,0,0-2.7,2.91l0-.08c-.12.53-.16,1.09-.32,1.74a2.5,2.5,0,0,1-.43-1.88v0l0,0a7.62,7.62,0,0,1,2.94-3.33A8.88,8.88,0,0,1,61.07,193h0a20.47,20.47,0,0,0,2.31-.45,23.39,23.39,0,0,0,2.24-.73c1.48-.55,2.94-1.22,4.44-1.82l-.21.3h0a3.52,3.52,0,0,0-.13-1.21c-.11-.41-.27-.85-.39-1.29l0,0a2.12,2.12,0,0,1-.12-1.25,1.92,1.92,0,0,1,.71-1,2.17,2.17,0,0,1,2.37-.21h0l0,0,1.18.9-.55.33-.63-4.28.24.28-.94-.4-.07,0-.06-.1c-2-3.54-3.91-7.11-5.71-10.75-.89-1.82-1.77-3.66-2.61-5.51l-2.44-5.58c-.78-1.87-1.51-3.77-2.27-5.65l-2.09-5.72-1.91-5.78-1.74-5.84,0-.1,0-.1,1.86-5.81,2-5.77,2.13-5.72c.76-1.89,1.48-3.79,2.26-5.67,1.58-3.75,3.19-7.48,5-11.13l2.74-5.46c.91-1.82,1.82-3.64,2.79-5.42l0,.17V87.83l0,.14-3.63-7.88-.08-.18.12-.17,1.62-2.2,0,.31a99.32,99.32,0,0,0-7.73-17.59Z" fill="#adfedc"/><polygon points="14.7 86.15 42.83 73.81 42.66 73.97 55.61 47.25 55.68 47.11 55.83 47.04 61.85 44.55 61.59 44.85 62.71 40.44 62.78 40.17 63.04 40.11 72.51 37.62 72.89 37.52 73.02 37.88 77.18 49.28 76.81 49.02 83.11 49.03 83.4 49.04 83.48 49.32 89.97 74.77 90 74.88 89.95 74.98 80.97 92.36 80.53 92.13 89.41 74.7 89.38 74.92 82.75 49.51 83.11 49.79 76.81 49.81 76.54 49.81 76.44 49.55 72.21 38.18 72.73 38.45 63.27 40.99 63.6 40.66 62.45 45.07 62.39 45.29 62.19 45.38 56.16 47.83 56.38 47.62 43.26 74.27 43.21 74.38 43.1 74.43 14.9 86.61 14.7 86.15" fill="url(#Áåçûìÿííûé_ãðàäèåíò_50)"/><polygon points="106.29 89.43 102.38 74.94 102.37 74.93 102.37 74.91 101.38 68.8 100.51 62.68 98.75 50.44 98.72 50.28 98.86 50.19 100.24 49.21 100.53 49.62 99.17 50.62 99.28 50.36 101.27 62.56 102.28 68.66 103.17 74.78 103.17 74.74 106.77 89.3 106.29 89.43" fill="url(#Áåçûìÿííûé_ãðàäèåíò_50-2)"/><path d="M102.12,46.38l12.64,9.13c2.13,1.5,4.18,3.1,6.25,4.67l6.21,4.71-.08,0,5.18,1.94-.17.47-5.22-1.83h0l0,0-6.31-4.57c-2.11-1.52-4.24-3-6.29-4.61l-12.43-9.42Z" fill="url(#Áåçûìÿííûé_ãðàäèåíò_50-3)"/><path d="M82.27,98.94,70.65,117.8l-.05.07-.07,0-9.26,5.64.16-.2-4.66,13V136c2.37,5.64,4.62,11.33,7,17l6.94,17-.15-.16,5,2.5.1,0,0,.11,3.88,10.1-.47.18-4-10.07.15.16-5-2.46-.11-.05,0-.11L63,153.33c-2.34-5.65-4.76-11.27-7.06-16.94l-.07-.17.06-.16,4.78-13,0-.14.12-.06,9.31-5.56-.11.11L81.85,98.67Z" fill="url(#Áåçûìÿííûé_ãðàäèåíò_50-4)"/></g></g></g></svg>